<?xml version="1.0" encoding="utf-8"?>
<!-- Generator: Adobe Illustrator 26.0.2, SVG Export Plug-In . SVG Version: 6.00 Build 0)  -->
<svg version="1.1" id="Layer_1" xmlns="http://www.w3.org/2000/svg" xmlns:xlink="http://www.w3.org/1999/xlink" x="0px" y="0px"
	 viewBox="0 0 512 512" style="enable-background:new 0 0 512 512;" xml:space="preserve">
<g>
	<path d="M169.93,51.28c5.88,0,11.04,1.2,15.45,3.58c4.42,2.39,7.84,5.82,10.29,10.29c2.44,4.47,3.66,9.9,3.66,16.28
		c0,6.22-1.25,11.66-3.75,16.33c-2.5,4.66-5.97,8.3-10.41,10.91c-4.44,2.61-9.55,3.91-15.33,3.91c-5.89,0-11.04-1.19-15.45-3.58
		c-4.41-2.39-7.84-5.83-10.29-10.33c-2.44-4.5-3.66-9.91-3.66-16.24c0-6.22,1.26-11.66,3.79-16.33c2.53-4.66,6-8.3,10.41-10.91
		C159.05,52.59,164.15,51.28,169.93,51.28z M169.59,52.78c-3.11,0-5.82,1.25-8.12,3.75c-2.3,2.5-4.08,5.94-5.33,10.33
		s-1.87,9.47-1.87,15.24c0,5.89,0.71,11.01,2.13,15.37c1.41,4.36,3.33,7.72,5.74,10.08c2.42,2.36,5.09,3.54,8.04,3.54
		c3.11,0,5.82-1.25,8.12-3.75c2.3-2.5,4.08-5.96,5.33-10.37c1.25-4.41,1.88-9.48,1.88-15.2c0-5.94-0.71-11.08-2.13-15.41
		c-1.41-4.33-3.33-7.68-5.75-10.04C175.22,53.96,172.54,52.78,169.59,52.78z"/>
	<path d="M166.88,143.05v1.67c-1.78,0.06-3.12,0.26-4.04,0.62c-0.91,0.36-1.51,1.03-1.79,2s-0.42,2.49-0.42,4.54v41.32
		c0,2,0.15,3.5,0.46,4.5c0.31,1,0.9,1.67,1.79,2c0.89,0.33,2.22,0.56,4,0.67v1.67c-1.5-0.11-3.39-0.18-5.67-0.21
		c-2.27-0.03-4.58-0.04-6.91-0.04c-2.66,0-5.18,0.01-7.53,0.04c-2.36,0.03-4.24,0.1-5.62,0.21v-1.67c1.77-0.11,3.11-0.33,4-0.67
		c0.88-0.33,1.48-1,1.79-2c0.3-1,0.46-2.5,0.46-4.5v-41.32c0-2.06-0.16-3.57-0.46-4.54c-0.31-0.97-0.92-1.64-1.83-2
		c-0.92-0.36-2.24-0.57-3.96-0.62v-1.67c1.39,0.06,3.26,0.11,5.62,0.17c2.36,0.06,4.87,0.08,7.53,0.08c2.33,0,4.64-0.03,6.91-0.08
		C163.5,143.16,165.39,143.11,166.88,143.05z M195.71,143.05v1.58c-1.78,0.39-3.68,1.17-5.71,2.33c-2.03,1.17-4.15,3.05-6.37,5.66
		l-15.66,18.66l4.83-6.91l19.82,30.9c0.78,1.28,1.61,2.31,2.5,3.08c0.88,0.78,2.05,1.45,3.5,2v1.67c-1.95-0.11-4.11-0.18-6.5-0.21
		c-2.39-0.03-4.55-0.04-6.5-0.04c-1.17,0-2.58,0.01-4.25,0.04c-1.67,0.03-3.78,0.1-6.33,0.21v-1.67c2.28-0.11,3.65-0.43,4.12-0.96
		c0.47-0.53,0.26-1.46-0.62-2.79l-12.08-19.57c-0.78-1.28-1.47-2.24-2.08-2.87c-0.61-0.64-1.22-1.08-1.83-1.33
		c-0.61-0.25-1.42-0.4-2.42-0.46v-1.75c2.44-0.05,4.62-0.72,6.54-2c1.91-1.28,4.01-3.22,6.29-5.83l4.91-5.91
		c2.11-2.5,3.35-4.65,3.71-6.46c0.36-1.81,0-3.21-1.08-4.21c-1.08-1-2.74-1.53-4.96-1.58v-1.58c2.06,0.06,4.01,0.11,5.87,0.17
		c1.86,0.06,4.01,0.08,6.46,0.08C191.1,143.3,193.7,143.22,195.71,143.05z"/>
	<path d="M168.63,232.53c3.28,0,5.8,0.35,7.58,1.04c1.77,0.69,3.3,1.43,4.58,2.21c0.67,0.39,1.21,0.68,1.62,0.87
		c0.42,0.19,0.82,0.29,1.21,0.29c0.89,0,1.5-1.22,1.84-3.67h1.91c-0.06,1.06-0.12,2.32-0.21,3.79c-0.09,1.47-0.14,3.4-0.17,5.79
		c-0.03,2.39-0.04,5.53-0.04,9.41h-1.91c-0.22-2.89-0.89-5.69-2-8.41c-1.11-2.72-2.68-4.96-4.71-6.71s-4.51-2.62-7.45-2.62
		c-2.67,0-4.86,0.75-6.58,2.25c-1.72,1.5-2.58,3.58-2.58,6.25c0,2.22,0.55,4.12,1.67,5.7c1.11,1.58,2.73,3.12,4.87,4.62
		c2.14,1.5,4.73,3.3,7.79,5.42c2.67,1.72,5.05,3.44,7.17,5.17c2.11,1.72,3.8,3.66,5.08,5.83c1.28,2.16,1.92,4.75,1.92,7.75
		c0,3.67-0.96,6.69-2.87,9.08c-1.91,2.39-4.43,4.18-7.54,5.37s-6.53,1.79-10.25,1.79c-3.44,0-6.19-0.33-8.25-1
		c-2.06-0.67-3.78-1.36-5.17-2.08c-1.22-0.78-2.17-1.17-2.83-1.17c-0.89,0-1.5,1.22-1.83,3.67h-1.91c0.11-1.33,0.18-2.89,0.21-4.66
		c0.03-1.78,0.05-4.09,0.08-6.96c0.03-2.86,0.04-6.48,0.04-10.87h1.92c0.22,3.66,0.84,7.09,1.87,10.29
		c1.03,3.19,2.61,5.76,4.75,7.71c2.14,1.94,4.98,2.92,8.54,2.92c2.89,0,5.33-0.78,7.33-2.33c2-1.55,3-3.89,3-7
		c0-3.44-1.17-6.29-3.5-8.54c-2.33-2.25-5.33-4.57-9-6.96c-2.61-1.72-5.05-3.44-7.33-5.17c-2.27-1.72-4.09-3.69-5.45-5.91
		c-1.36-2.22-2.04-4.86-2.04-7.91c0-3.5,0.87-6.37,2.62-8.62c1.75-2.25,4.05-3.91,6.91-5C162.37,233.07,165.41,232.53,168.63,232.53
		z"/>
	<g>
		<rect x="300.6" y="241.87" transform="matrix(0.7071 0.7071 -0.7071 0.7071 273.5222 -169.3236)" width="81.1" height="7.28"/>
		<rect x="369.52" y="271.71" transform="matrix(0.7071 0.7071 -0.7071 0.7071 302.9205 -181.5008)" width="2.05" height="6.39"/>
		<rect x="307.96" y="211.32" transform="matrix(0.7071 0.7071 -0.7071 0.7071 242.9761 -156.671)" width="5.3" height="7.28"/>
		<polygon points="368.7,278.21 373.85,273.06 383.05,287.41 		"/>
		<path d="M321.17,194.44c0,0-13.66,6.21-20.16,16.08c-6.5,9.87-16.94,27.6-13.55,31.33c0.19,0.21,0.52,0.57,0.52,0.57l0.92,0.92
			c0,0,1.6-10.08,13.55-25.68c1.25-1.63,2.53-3.16,2.53-3.16l1.17,1.17l5.15-5.15c-3.15-3.15-1.33-5.76,1.67-7.49
			c5.84-3.37,8.36-3.29,10-4.93C324.62,196.45,321.17,194.44,321.17,194.44z M306.89,211.24c-0.7,0.7-1.82,0.7-2.52,0
			c-0.7-0.7-0.7-1.82,0-2.52c0.7-0.7,1.82-0.7,2.52,0C307.58,209.42,307.58,210.55,306.89,211.24z"/>
		<rect x="297.14" y="241.87" transform="matrix(-0.7071 0.7071 -0.7071 -0.7071 750.0688 180.3287)" width="81.1" height="7.28"/>
		<rect x="307.26" y="271.71" transform="matrix(-0.7071 0.7071 -0.7071 -0.7071 720.6704 251.3026)" width="2.05" height="6.39"/>
		<rect x="365.58" y="211.32" transform="matrix(-0.7071 0.7071 -0.7071 -0.7071 780.6149 106.5839)" width="5.3" height="7.28"/>
		<polygon points="310.14,278.21 304.99,273.06 295.79,287.41 		"/>
		<path d="M355.86,198.09c1.64,1.64,4.16,1.56,10,4.93c3.01,1.74,4.82,4.35,1.67,7.49l5.15,5.15l1.17-1.17c0,0,1.29,1.54,2.53,3.16
			c11.95,15.6,13.55,25.68,13.55,25.68l0.92-0.92c0,0,0.33-0.36,0.52-0.57c3.39-3.74-7.05-21.46-13.55-31.33
			c-6.5-9.87-20.16-16.08-20.16-16.08S354.22,196.45,355.86,198.09z M371.95,208.72c0.7-0.7,1.82-0.7,2.52,0
			c0.7,0.7,0.7,1.82,0,2.52c-0.7,0.7-1.82,0.7-2.52,0C371.26,210.55,371.26,209.42,371.95,208.72z"/>
	</g>
	<rect x="254.28" y="27.86" width="4.42" height="241.19"/>
	<rect x="256.49" y="169" width="165.86" height="4.42"/>
	<g>
		<path d="M422.35,17.31h-6.27H96.89h-6.27h-6.27v308.92h0.21c2.14,38.49,30.76,78.02,85.31,117.57
			c41.51,30.09,82.32,48.59,84.04,49.36l2.57,1.16l2.57-1.16c1.71-0.77,42.53-19.27,84.04-49.36
			c54.55-39.55,83.17-79.08,85.31-117.57h0.21V17.31H422.35z M416.08,321.59c0,20.21-8.86,39.71-22.41,57.73l-33.92-44.78
			l-47.52-18.62l-55.74-60.1l-82.09,86.44l-14.78-6.32l-39.54,44.37c-13.98-18.3-23.18-38.14-23.18-58.71V29.85h319.19V321.59z"/>
	</g>
	<g>
		<path d="M320.5,116.39c-0.57-2.15-1.28-3.67-2.13-4.56c-0.85-0.89-1.73-1.33-2.64-1.33c-1.3,0-2.49,0.95-3.55,2.84
			c-1.07,1.89-1.6,5.07-1.6,9.53c0,4.22,0.49,7.21,1.48,8.97c0.99,1.76,2.17,2.63,3.55,2.63c0.67,0,1.42-0.2,2.25-0.59
			c0.83-0.4,1.6-1.05,2.31-1.95c0.37-0.48,0.68-1.04,0.95-1.68c0.14-1.51,0.24-3.12,0.24-4.89
			C321.36,121.53,321.07,118.54,320.5,116.39z"/>
		<path d="M258.7,20.94v152.48h166.79V20.94H258.7z M356.57,55.36c1.36-2.09,3.16-3.67,5.39-4.74c2.23-1.07,4.67-1.6,7.31-1.6
			c4.3,0,7.7,1.42,10.18,4.26c2.49,2.84,3.73,6.87,3.73,12.08c0,3.16-0.5,5.99-1.51,8.5c-1.01,2.51-2.35,4.68-4.03,6.51
			c-1.68,1.84-3.53,3.37-5.56,4.62c-2.04,1.24-4.1,2.23-6.22,2.96c-2.12,0.73-4.1,1.23-5.95,1.51l-0.24-1.18
			c1.73-0.51,3.46-1.2,5.18-2.07c1.72-0.87,3.28-2.12,4.68-3.76c1.4-1.64,2.54-3.86,3.41-6.66c0.33-1.08,0.58-2.31,0.79-3.61
			c-0.12,0.19-0.2,0.42-0.34,0.59c-0.93,1.11-2.05,1.91-3.35,2.4c-1.3,0.49-2.6,0.74-3.91,0.74c-2.09,0-4.02-0.51-5.78-1.54
			c-1.76-1.03-3.17-2.5-4.23-4.41c-1.07-1.91-1.6-4.21-1.6-6.9C354.53,60.01,355.21,57.45,356.57,55.36z M306.67,52.22
			c3.39-0.08,6.21-0.33,8.44-0.77c2.23-0.44,4.19-1.19,5.89-2.25v25.52c0,1.74,0.33,2.92,0.98,3.55c0.65,0.63,1.74,0.95,3.28,0.95
			v1.24c-0.79-0.04-1.95-0.09-3.46-0.15c-1.52-0.06-3.09-0.09-4.71-0.09c-2.01,0-3.96,0.03-5.83,0.09
			c-1.88,0.06-3.33,0.11-4.35,0.15v-1.24c1.74,0,3.1-0.33,4.09-0.98c0.98-0.65,1.48-1.94,1.48-3.88V59.92c0-1.9-0.17-3.3-0.5-4.2
			c-0.34-0.91-0.93-1.5-1.78-1.78c-0.85-0.28-2.02-0.42-3.52-0.42V52.22z M328.79,134.15c-1.01,2.51-2.35,4.68-4.03,6.51
			c-1.68,1.84-3.53,3.37-5.56,4.62c-2.04,1.24-4.1,2.23-6.22,2.96c-2.12,0.73-4.1,1.23-5.95,1.51l-0.24-1.18
			c1.74-0.51,3.46-1.2,5.18-2.07c1.72-0.87,3.28-2.12,4.68-3.76c1.4-1.64,2.54-3.86,3.41-6.66c0.33-1.08,0.58-2.31,0.79-3.61
			c-0.12,0.19-0.2,0.42-0.34,0.59c-0.93,1.11-2.05,1.91-3.35,2.4c-1.3,0.49-2.61,0.74-3.91,0.74c-2.09,0-4.02-0.51-5.78-1.54
			c-1.76-1.03-3.17-2.5-4.23-4.41c-1.07-1.91-1.6-4.21-1.6-6.9c0-3.04,0.68-5.6,2.04-7.7c1.36-2.09,3.16-3.67,5.39-4.74
			c2.23-1.07,4.67-1.6,7.31-1.6c4.3,0,7.7,1.42,10.18,4.26c2.49,2.84,3.73,6.87,3.73,12.08
			C330.3,128.81,329.79,131.64,328.79,134.15z M378.15,140.75c-0.79-0.04-1.95-0.09-3.46-0.15c-1.52-0.06-3.09-0.09-4.71-0.09
			c-2.01,0-3.96,0.03-5.83,0.09c-1.88,0.06-3.33,0.11-4.35,0.15v-1.24c1.74,0,3.1-0.33,4.09-0.98c0.98-0.65,1.48-1.94,1.48-3.88
			v-14.45c0-1.9-0.17-3.3-0.51-4.2c-0.34-0.91-0.93-1.5-1.77-1.78c-0.85-0.28-2.03-0.42-3.52-0.42v-1.3
			c3.4-0.08,6.21-0.33,8.44-0.77c2.23-0.44,4.19-1.19,5.89-2.25v25.52c0,1.74,0.33,2.92,0.98,3.55c0.65,0.63,1.75,0.95,3.28,0.95
			V140.75z M387.68,98.74h-44.01v44.01h-3.14V98.74h-44.01v-3.14h44.01V51.6h3.14v44.01h44.01V98.74z"/>
		<path d="M368.5,74.19c0.67,0,1.42-0.2,2.25-0.59c0.83-0.4,1.6-1.05,2.31-1.95c0.37-0.48,0.68-1.04,0.95-1.68
			c0.14-1.51,0.24-3.12,0.24-4.89c0-3.83-0.29-6.82-0.86-8.97c-0.57-2.15-1.28-3.67-2.13-4.56c-0.85-0.89-1.73-1.33-2.63-1.33
			c-1.3,0-2.49,0.95-3.55,2.84c-1.06,1.89-1.6,5.07-1.6,9.53c0,4.22,0.49,7.21,1.48,8.97C365.94,73.31,367.12,74.19,368.5,74.19z"/>
	</g>
</g>
</svg>
