<?xml version="1.0" encoding="utf-8"?>
<!-- Generator: Adobe Illustrator 26.0.2, SVG Export Plug-In . SVG Version: 6.00 Build 0)  -->
<svg version="1.1" id="Layer_1" xmlns="http://www.w3.org/2000/svg" xmlns:xlink="http://www.w3.org/1999/xlink" x="0px" y="0px"
	 viewBox="0 0 512 512" style="enable-background:new 0 0 512 512;" xml:space="preserve">
<g>
	<path d="M166.6,43.43c6.11,0,11.46,1.24,16.04,3.72c4.59,2.48,8.15,6.04,10.68,10.68s3.8,10.28,3.8,16.91
		c0,6.46-1.3,12.11-3.89,16.95c-2.59,4.84-6.2,8.62-10.81,11.33c-4.61,2.71-9.92,4.06-15.91,4.06c-6.11,0-11.46-1.24-16.05-3.72
		c-4.58-2.48-8.15-6.05-10.68-10.73c-2.54-4.67-3.8-10.29-3.8-16.87c0-6.46,1.31-12.11,3.94-16.95c2.62-4.84,6.23-8.62,10.81-11.33
		C155.31,44.79,160.6,43.43,166.6,43.43z M166.25,44.99c-3.23,0-6.04,1.3-8.43,3.89c-2.39,2.6-4.24,6.17-5.54,10.73
		c-1.3,4.56-1.95,9.83-1.95,15.83c0,6.11,0.73,11.43,2.21,15.96c1.47,4.53,3.46,8.01,5.96,10.47c2.51,2.45,5.29,3.68,8.35,3.68
		c3.23,0,6.04-1.3,8.43-3.89c2.39-2.6,4.24-6.19,5.54-10.77c1.3-4.58,1.95-9.84,1.95-15.79c0-6.17-0.74-11.5-2.21-16
		c-1.47-4.5-3.46-7.97-5.97-10.42C172.09,46.21,169.31,44.99,166.25,44.99z"/>
	<path d="M163.44,138.72v1.73c-1.85,0.06-3.24,0.27-4.2,0.65c-0.95,0.38-1.57,1.07-1.86,2.08s-0.43,2.58-0.43,4.71v42.9
		c0,2.08,0.16,3.63,0.48,4.67c0.32,1.04,0.94,1.73,1.86,2.08c0.92,0.35,2.31,0.58,4.15,0.69v1.73c-1.55-0.12-3.52-0.19-5.88-0.22
		c-2.36-0.03-4.76-0.04-7.18-0.04c-2.77,0-5.38,0.02-7.82,0.04c-2.45,0.03-4.4,0.1-5.84,0.22v-1.73c1.84-0.11,3.23-0.35,4.15-0.69
		c0.92-0.35,1.54-1.04,1.86-2.08c0.31-1.04,0.48-2.59,0.48-4.67v-42.9c0-2.13-0.16-3.71-0.48-4.71c-0.32-1.01-0.95-1.7-1.9-2.08
		c-0.95-0.37-2.32-0.59-4.11-0.65v-1.73c1.44,0.06,3.39,0.12,5.84,0.17c2.45,0.06,5.06,0.09,7.82,0.09c2.42,0,4.82-0.03,7.18-0.09
		C159.93,138.84,161.89,138.78,163.44,138.72z M193.37,138.72v1.64c-1.85,0.4-3.82,1.21-5.93,2.42c-2.11,1.21-4.31,3.17-6.62,5.88
		l-16.26,19.38l5.02-7.18l20.59,32.09c0.81,1.33,1.67,2.39,2.6,3.2c0.92,0.81,2.13,1.5,3.63,2.08v1.73
		c-2.02-0.12-4.27-0.19-6.75-0.22c-2.48-0.03-4.73-0.04-6.75-0.04c-1.21,0-2.68,0.02-4.41,0.04c-1.73,0.03-3.92,0.1-6.57,0.22v-1.73
		c2.37-0.11,3.79-0.44,4.28-0.99c0.49-0.55,0.27-1.51-0.65-2.9l-12.54-20.33c-0.81-1.32-1.53-2.32-2.16-2.98
		c-0.64-0.66-1.27-1.13-1.9-1.38c-0.64-0.26-1.47-0.42-2.51-0.48v-1.82c2.53-0.06,4.8-0.75,6.79-2.08c1.99-1.32,4.17-3.34,6.53-6.05
		l5.1-6.14c2.19-2.6,3.47-4.83,3.85-6.7c0.38-1.87,0-3.33-1.12-4.37c-1.13-1.04-2.84-1.58-5.15-1.64v-1.64
		c2.13,0.06,4.17,0.12,6.1,0.17s4.17,0.09,6.7,0.09C188.58,138.98,191.29,138.9,193.37,138.72z"/>
	<path d="M165.26,231.64c3.4,0,6.02,0.36,7.87,1.08c1.84,0.72,3.43,1.49,4.76,2.29c0.69,0.4,1.25,0.71,1.68,0.91
		c0.43,0.2,0.85,0.3,1.25,0.3c0.92,0,1.56-1.27,1.91-3.81h1.99c-0.06,1.1-0.13,2.41-0.21,3.94c-0.09,1.53-0.15,3.53-0.18,6.01
		c-0.03,2.48-0.04,5.74-0.04,9.77h-1.99c-0.23-3-0.92-5.91-2.08-8.74c-1.15-2.82-2.78-5.15-4.89-6.96c-2.1-1.82-4.68-2.72-7.74-2.72
		c-2.77,0-5.05,0.78-6.84,2.34c-1.79,1.56-2.68,3.72-2.68,6.49c0,2.31,0.58,4.28,1.73,5.92c1.15,1.64,2.84,3.24,5.06,4.8
		c2.22,1.56,4.92,3.43,8.09,5.62c2.77,1.79,5.25,3.57,7.44,5.36c2.19,1.79,3.95,3.8,5.27,6.05c1.33,2.25,1.99,4.93,1.99,8.04
		c0,3.81-1,6.95-2.98,9.43c-1.99,2.48-4.6,4.34-7.83,5.58c-3.23,1.24-6.78,1.86-10.64,1.86c-3.58,0-6.43-0.35-8.56-1.04
		c-2.13-0.69-3.92-1.41-5.36-2.16c-1.27-0.81-2.25-1.21-2.94-1.21c-0.92,0-1.55,1.27-1.9,3.81h-1.99c0.12-1.38,0.18-3,0.21-4.84
		c0.03-1.84,0.06-4.25,0.09-7.22c0.03-2.97,0.04-6.73,0.04-11.29h1.99c0.23,3.8,0.88,7.37,1.95,10.68c1.06,3.32,2.71,5.98,4.93,8
		c2.22,2.02,5.17,3.03,8.87,3.03c3,0,5.54-0.81,7.61-2.42c2.08-1.61,3.12-4.04,3.12-7.27c0-3.57-1.21-6.53-3.63-8.87
		c-2.42-2.34-5.54-4.74-9.34-7.22c-2.71-1.79-5.25-3.57-7.61-5.36c-2.36-1.79-4.25-3.83-5.66-6.14c-1.41-2.31-2.12-5.05-2.12-8.22
		c0-3.63,0.91-6.62,2.72-8.95c1.82-2.33,4.21-4.06,7.18-5.19C158.76,232.2,161.92,231.64,165.26,231.64z"/>
	<g>
		<rect x="302.3" y="241.33" transform="matrix(0.7071 0.7071 -0.7071 0.7071 274.1945 -171.7381)" width="84.21" height="7.56"/>
		<rect x="373.86" y="272.32" transform="matrix(0.7071 0.7071 -0.7071 0.7071 304.7216 -184.3829)" width="2.13" height="6.63"/>
		<rect x="309.93" y="209.61" transform="matrix(0.7071 0.7071 -0.7071 0.7071 242.4755 -158.5997)" width="5.5" height="7.56"/>
		<polygon points="373.01,279.07 378.36,273.72 387.91,288.62 		"/>
		<path d="M323.65,192.08c0,0-14.18,6.45-20.93,16.7c-6.75,10.25-17.59,28.66-14.07,32.54c0.2,0.22,0.54,0.59,0.54,0.59l0.96,0.96
			c0,0,1.66-10.47,14.07-26.66c1.3-1.69,2.63-3.29,2.63-3.29l1.21,1.21l5.35-5.35c-3.27-3.27-1.38-5.98,1.74-7.78
			c6.06-3.5,8.68-3.42,10.38-5.12C327.23,194.17,323.65,192.08,323.65,192.08z M308.82,209.53c-0.72,0.72-1.89,0.72-2.61,0
			c-0.72-0.72-0.72-1.89,0-2.61c0.72-0.72,1.89-0.72,2.61,0C309.54,207.64,309.54,208.81,308.82,209.53z"/>
		<rect x="298.7" y="241.33" transform="matrix(-0.7071 0.7071 -0.7071 -0.7071 755.1111 177.4486)" width="84.21" height="7.56"/>
		<rect x="309.21" y="272.32" transform="matrix(-0.7071 0.7071 -0.7071 -0.7071 724.584 251.1476)" width="2.13" height="6.63"/>
		<rect x="369.77" y="209.61" transform="matrix(-0.7071 0.7071 -0.7071 -0.7071 786.8301 100.8723)" width="5.5" height="7.56"/>
		<polygon points="312.2,279.07 306.85,273.72 297.3,288.62 		"/>
		<path d="M359.68,195.87c1.7,1.7,4.32,1.62,10.38,5.12c3.12,1.8,5.01,4.51,1.74,7.78l5.35,5.35l1.21-1.21c0,0,1.34,1.59,2.63,3.29
			c12.41,16.2,14.07,26.66,14.07,26.66l0.96-0.96c0,0,0.34-0.37,0.54-0.59c3.52-3.88-7.32-22.29-14.07-32.54
			c-6.75-10.25-20.93-16.7-20.93-16.7S357.97,194.17,359.68,195.87z M376.39,206.91c0.72-0.72,1.89-0.72,2.61,0
			c0.72,0.72,0.72,1.89,0,2.61c-0.72,0.72-1.89,0.72-2.61,0C375.67,208.81,375.67,207.64,376.39,206.91z"/>
	</g>
	<rect x="254.19" y="19.11" width="4.59" height="250.45"/>
	<rect x="256.49" y="165.66" width="172.23" height="4.59"/>
	<g>
		<polygon points="339.17,400.07 339.13,400.07 337.47,404.75 340.77,404.75 		"/>
		<path d="M227.11,372.78c-0.27-0.41-0.63-0.74-1.07-0.98c-0.44-0.24-0.97-0.37-1.61-0.37c-0.63,0-1.17,0.12-1.61,0.37
			c-0.44,0.24-0.8,0.57-1.07,0.98c-0.27,0.41-0.48,0.88-0.6,1.4s-0.19,1.07-0.19,1.63c0,0.54,0.06,1.06,0.19,1.56
			c0.13,0.5,0.33,0.96,0.6,1.37c0.27,0.4,0.63,0.73,1.07,0.97c0.44,0.24,0.97,0.37,1.61,0.37c0.63,0,1.17-0.12,1.61-0.37
			c0.44-0.24,0.8-0.57,1.07-0.97c0.27-0.41,0.48-0.86,0.6-1.37c0.13-0.51,0.18-1.03,0.18-1.56c0-0.56-0.06-1.1-0.18-1.63
			S227.38,373.19,227.11,372.78z"/>
		<path d="M210.26,399.46c-0.22-0.14-0.49-0.23-0.78-0.28c-0.3-0.05-0.61-0.07-0.93-0.07h-2.18v3.82h2.18
			c0.32,0,0.63-0.02,0.93-0.07c0.3-0.05,0.56-0.14,0.78-0.28c0.22-0.14,0.41-0.33,0.54-0.58c0.14-0.25,0.21-0.58,0.21-0.98
			c0-0.4-0.07-0.73-0.21-0.98C210.67,399.79,210.48,399.6,210.26,399.46z"/>
		<path d="M323.67,399.11h-3.07v3.59h3.07c0.64,0,1.13-0.14,1.44-0.43c0.32-0.28,0.48-0.75,0.48-1.39c0-0.62-0.16-1.07-0.48-1.35
			C324.79,399.25,324.31,399.11,323.67,399.11z"/>
		<path d="M428.72,8.15h-6.51H90.77h-6.51h-6.51v320.79h0.22c2.22,39.97,31.94,81.02,88.59,122.09
			c43.1,31.25,85.48,50.45,87.26,51.26l2.67,1.2l2.67-1.2c1.78-0.8,44.16-20.01,87.26-51.26c56.65-41.07,86.37-82.11,88.59-122.09
			h0.22V8.15H428.72z M177.2,396.93h3.5l-4.98,5.04l5.47,7.71h-3.52l-3.84-5.73l-1.61,1.62v4.11h-2.8v-12.75h2.8v5.28L177.2,396.93z
			 M185.88,409.68v-12.75h2.8v12.75H185.88z M194.72,409.68v-12.75h2.8v12.75H194.72z M327.23,404.12c0.23,0.2,0.41,0.43,0.56,0.7
			c0.14,0.27,0.25,0.56,0.31,0.88c0.07,0.32,0.11,0.64,0.13,0.96c0.01,0.2,0.02,0.44,0.04,0.72c0.01,0.27,0.03,0.55,0.06,0.84
			c0.03,0.28,0.08,0.56,0.14,0.81c0.07,0.26,0.16,0.47,0.3,0.65h-2.81c-0.15-0.4-0.25-0.89-0.28-1.45
			c-0.04-0.56-0.09-1.09-0.16-1.61c-0.09-0.67-0.3-1.15-0.61-1.46c-0.31-0.31-0.82-0.46-1.52-0.46h-2.8v4.98h-2.8v-12.75h6.87
			c0.57,0,1.09,0.09,1.54,0.28c0.46,0.19,0.85,0.44,1.18,0.76c0.33,0.32,0.58,0.69,0.75,1.11c0.17,0.42,0.26,0.88,0.26,1.37
			c0,0.75-0.16,1.4-0.47,1.95c-0.32,0.55-0.83,0.96-1.55,1.25v0.04C326.72,403.78,327.01,403.92,327.23,404.12z M332.92,409.68
			l4.82-12.75h2.87l4.77,12.75h-2.91l-0.96-2.84h-4.77l-1,2.84H332.92z M311.81,404.86c0,1.73-0.48,3.01-1.45,3.85
			c-0.96,0.84-2.3,1.26-4,1.26c-1.73,0-3.06-0.41-4.01-1.25c-0.95-0.83-1.42-2.12-1.42-3.86v-7.93h2.8v7.93
			c0,0.35,0.03,0.68,0.09,1.02c0.06,0.33,0.18,0.63,0.38,0.88c0.19,0.26,0.45,0.46,0.79,0.63c0.34,0.16,0.79,0.24,1.36,0.24
			c1,0,1.69-0.22,2.07-0.67c0.38-0.45,0.57-1.15,0.57-2.1v-7.93h2.8V404.86z M310.39,357.49H203.05v-4.59h107.34V357.49z
			 M285.85,396.93h9.53v2.36h-6.73v2.73h6.18v2.18h-6.18v3.13h6.87v2.36h-9.68V396.93z M283.96,382.13v-12.75h2.78l5.32,8.55h0.04
			v-8.55h2.62v12.75h-2.8l-5.31-8.54h-0.04v8.54H283.96z M269.99,378.33c0.06,0.33,0.18,0.63,0.38,0.88
			c0.19,0.26,0.45,0.46,0.79,0.63c0.34,0.16,0.79,0.24,1.36,0.24c1,0,1.69-0.22,2.07-0.67c0.38-0.45,0.57-1.15,0.57-2.1v-7.93h2.8
			v7.93c0,1.73-0.48,3.01-1.45,3.85s-2.3,1.26-4,1.26c-1.73,0-3.06-0.41-4.01-1.25c-0.95-0.83-1.42-2.12-1.42-3.86v-7.93h2.8v7.93
			C269.9,377.65,269.93,377.99,269.99,378.33z M277.57,405.38c-0.22-0.22-0.51-0.39-0.87-0.54c-0.36-0.14-0.76-0.27-1.22-0.37
			c-0.45-0.11-0.91-0.23-1.38-0.36c-0.48-0.12-0.94-0.26-1.39-0.44c-0.45-0.17-0.86-0.39-1.22-0.67c-0.36-0.27-0.65-0.61-0.87-1.02
			c-0.22-0.41-0.33-0.91-0.33-1.49c0-0.65,0.14-1.22,0.42-1.71c0.28-0.48,0.65-0.88,1.1-1.21c0.45-0.32,0.96-0.56,1.53-0.71
			c0.57-0.15,1.14-0.23,1.71-0.23c0.67,0,1.31,0.08,1.92,0.22c0.61,0.15,1.16,0.39,1.64,0.72c0.48,0.33,0.85,0.76,1.13,1.28
			c0.28,0.52,0.42,1.15,0.42,1.88h-2.71c-0.02-0.38-0.1-0.7-0.24-0.95c-0.13-0.25-0.32-0.45-0.54-0.59
			c-0.23-0.14-0.49-0.24-0.78-0.3c-0.29-0.06-0.61-0.09-0.96-0.09c-0.22,0-0.45,0.02-0.68,0.07c-0.22,0.05-0.43,0.13-0.61,0.25
			c-0.18,0.12-0.34,0.27-0.46,0.45c-0.12,0.18-0.18,0.41-0.18,0.68c0,0.25,0.05,0.45,0.14,0.61c0.09,0.15,0.28,0.3,0.57,0.43
			c0.28,0.13,0.66,0.26,1.16,0.39c0.49,0.13,1.14,0.3,1.94,0.5c0.24,0.05,0.57,0.13,0.99,0.26c0.42,0.12,0.84,0.32,1.26,0.6
			c0.42,0.28,0.78,0.64,1.08,1.1c0.3,0.46,0.46,1.04,0.46,1.76c0,0.58-0.12,1.12-0.34,1.62c-0.22,0.5-0.56,0.93-1.01,1.3
			c-0.44,0.36-1,0.65-1.66,0.85c-0.66,0.2-1.43,0.3-2.3,0.3c-0.7,0-1.39-0.09-2.04-0.26c-0.66-0.17-1.24-0.44-1.75-0.81
			c-0.51-0.37-0.91-0.84-1.21-1.41c-0.3-0.57-0.44-1.25-0.43-2.03h2.71c0,0.43,0.08,0.79,0.23,1.09c0.15,0.3,0.36,0.54,0.61,0.72
			c0.26,0.18,0.56,0.32,0.9,0.41s0.7,0.13,1.07,0.13c0.25,0,0.52-0.02,0.8-0.06c0.29-0.04,0.56-0.12,0.8-0.24
			c0.25-0.12,0.46-0.28,0.63-0.49c0.17-0.21,0.25-0.47,0.25-0.79C277.9,405.87,277.79,405.59,277.57,405.38z M253.83,396.93h3.14
			l2.98,5.04l2.96-5.04h3.13l-4.73,7.86v4.89h-2.81v-4.96L253.83,396.93z M262.01,379.77v2.36h-9.02v-12.75h2.8v10.39H262.01z
			 M236.13,377.31v-7.93h2.8v7.93c0,0.35,0.03,0.68,0.09,1.02c0.06,0.33,0.18,0.63,0.38,0.88c0.19,0.26,0.45,0.46,0.79,0.63
			c0.34,0.16,0.79,0.24,1.36,0.24c1,0,1.69-0.22,2.07-0.67c0.38-0.45,0.57-1.15,0.57-2.1v-7.93h2.8v7.93c0,1.73-0.48,3.01-1.45,3.85
			c-0.96,0.84-2.3,1.26-4,1.26c-1.73,0-3.06-0.41-4.01-1.25C236.6,380.33,236.13,379.05,236.13,377.31z M236.99,396.93v12.75h-2.8
			v-12.75H236.99z M243.03,396.93h2.8v10.39h6.22v2.36h-9.02V396.93z M228.03,402.02v2.18h-6.18v3.13h6.87v2.36h-9.68v-12.75h9.53
			v2.36h-6.73v2.73H228.03z M227.08,381.91c-0.77,0.34-1.65,0.51-2.64,0.51c-0.98,0-1.86-0.17-2.63-0.51
			c-0.78-0.34-1.44-0.8-1.97-1.4c-0.54-0.59-0.95-1.29-1.23-2.1c-0.29-0.8-0.43-1.67-0.43-2.6c0-0.95,0.14-1.84,0.43-2.65
			c0.29-0.81,0.7-1.53,1.23-2.13c0.53-0.61,1.19-1.08,1.97-1.43c0.78-0.35,1.65-0.52,2.63-0.52c0.99,0,1.87,0.17,2.64,0.52
			c0.78,0.35,1.43,0.82,1.96,1.43c0.54,0.61,0.95,1.32,1.23,2.13c0.29,0.82,0.43,1.7,0.43,2.65c0,0.93-0.14,1.79-0.43,2.6
			c-0.29,0.8-0.7,1.5-1.23,2.1C228.51,381.1,227.85,381.57,227.08,381.91z M213.72,401.02c0,0.51-0.08,1.02-0.24,1.51
			c-0.16,0.5-0.42,0.93-0.77,1.31c-0.35,0.38-0.81,0.69-1.37,0.92c-0.56,0.23-1.24,0.35-2.04,0.35h-2.95v4.57h-2.8v-12.75h5.75
			c0.8,0,1.48,0.12,2.04,0.35c0.56,0.23,1.01,0.54,1.37,0.92c0.35,0.38,0.61,0.82,0.77,1.3
			C213.64,399.99,213.72,400.5,213.72,401.02z M310.39,428.12v4.59H203.05v-4.59H310.39z M422.21,324.11
			c0,20.98-9.2,41.23-23.27,59.95l-35.23-46.5l-49.35-19.33l-57.88-62.41l-85.24,89.76l-15.35-6.57l-41.06,46.08
			c-14.51-19-24.07-39.6-24.07-60.97V21.17h331.44V324.11z"/>
	</g>
	<g>
		<path d="M322.96,111.03c-0.6-2.23-1.33-3.81-2.21-4.74c-0.88-0.92-1.79-1.38-2.74-1.38c-1.35,0-2.58,0.98-3.69,2.95
			c-1.11,1.97-1.66,5.27-1.66,9.9c0,4.39,0.51,7.49,1.54,9.32c1.02,1.82,2.25,2.74,3.69,2.74c0.7,0,1.47-0.2,2.34-0.61
			c0.86-0.41,1.66-1.09,2.4-2.03c0.39-0.49,0.71-1.08,0.98-1.75c0.15-1.57,0.24-3.24,0.24-5.08
			C323.85,116.37,323.55,113.27,322.96,111.03z"/>
		<path d="M258.78,11.92v158.34h173.2V11.92H258.78z M360.42,47.66c1.42-2.17,3.28-3.81,5.6-4.92c2.31-1.11,4.85-1.66,7.59-1.66
			c4.47,0,7.99,1.47,10.57,4.43c2.58,2.95,3.87,7.13,3.87,12.54c0,3.28-0.52,6.22-1.57,8.82c-1.05,2.6-2.44,4.86-4.18,6.76
			c-1.74,1.91-3.67,3.5-5.78,4.79c-2.11,1.29-4.26,2.32-6.46,3.08c-2.2,0.76-4.26,1.28-6.18,1.57l-0.25-1.23
			c1.8-0.53,3.6-1.25,5.38-2.15c1.78-0.9,3.4-2.21,4.86-3.9c1.45-1.7,2.63-4.01,3.54-6.92c0.35-1.12,0.6-2.39,0.82-3.75
			c-0.13,0.19-0.21,0.44-0.35,0.61c-0.96,1.15-2.13,1.98-3.48,2.49c-1.35,0.51-2.7,0.77-4.06,0.77c-2.17,0-4.17-0.53-6-1.6
			c-1.82-1.07-3.29-2.59-4.39-4.58c-1.11-1.99-1.66-4.38-1.66-7.16C358.3,52.5,359,49.83,360.42,47.66z M308.6,44.4
			c3.52-0.08,6.44-0.35,8.76-0.8c2.32-0.45,4.36-1.23,6.12-2.34v26.5c0,1.8,0.34,3.03,1.02,3.69c0.67,0.66,1.81,0.98,3.41,0.98v1.29
			c-0.82-0.04-2.02-0.09-3.6-0.15c-1.58-0.06-3.21-0.09-4.89-0.09c-2.09,0-4.11,0.03-6.05,0.09c-1.95,0.06-3.45,0.11-4.52,0.15
			v-1.29c1.8,0,3.22-0.34,4.24-1.01c1.02-0.68,1.54-2.02,1.54-4.03v-15c0-1.97-0.18-3.42-0.52-4.37c-0.35-0.94-0.96-1.56-1.85-1.84
			c-0.88-0.29-2.1-0.43-3.66-0.43V44.4z M331.57,129.48c-1.05,2.6-2.44,4.86-4.18,6.76c-1.74,1.91-3.67,3.5-5.78,4.79
			c-2.11,1.29-4.26,2.32-6.46,3.08c-2.2,0.76-4.26,1.28-6.18,1.57l-0.25-1.23c1.8-0.53,3.6-1.25,5.38-2.15
			c1.78-0.9,3.4-2.21,4.86-3.9c1.45-1.7,2.63-4.01,3.54-6.92c0.35-1.12,0.6-2.39,0.82-3.75c-0.13,0.19-0.21,0.44-0.36,0.61
			c-0.96,1.15-2.12,1.98-3.47,2.49c-1.35,0.51-2.71,0.77-4.06,0.77c-2.17,0-4.17-0.53-6-1.6c-1.82-1.07-3.29-2.59-4.39-4.58
			c-1.11-1.99-1.66-4.38-1.66-7.16c0-3.16,0.71-5.82,2.12-7.99c1.41-2.17,3.28-3.81,5.6-4.92c2.31-1.11,4.85-1.66,7.59-1.66
			c4.47,0,7.99,1.47,10.58,4.43c2.58,2.95,3.87,7.13,3.87,12.54C333.13,123.94,332.61,126.88,331.57,129.48z M382.83,136.34
			c-0.82-0.04-2.02-0.09-3.6-0.15c-1.58-0.06-3.21-0.09-4.89-0.09c-2.09,0-4.11,0.03-6.05,0.09c-1.95,0.06-3.45,0.11-4.52,0.15
			v-1.29c1.8,0,3.22-0.34,4.24-1.01c1.02-0.68,1.54-2.02,1.54-4.03v-15c0-1.97-0.18-3.42-0.52-4.37c-0.35-0.94-0.96-1.56-1.84-1.84
			c-0.88-0.29-2.1-0.43-3.66-0.43v-1.35c3.53-0.08,6.45-0.35,8.76-0.8c2.32-0.45,4.35-1.23,6.12-2.34v26.5
			c0,1.8,0.34,3.03,1.02,3.69c0.67,0.66,1.81,0.98,3.41,0.98V136.34z M392.72,92.71h-45.7v45.7h-3.26v-45.7h-45.7v-3.26h45.7v-45.7
			h3.26v45.7h45.7V92.71z"/>
		<path d="M372.81,67.21c0.7,0,1.47-0.2,2.34-0.61c0.86-0.41,1.66-1.09,2.4-2.03c0.39-0.49,0.71-1.08,0.98-1.75
			c0.15-1.57,0.24-3.24,0.24-5.08c0-3.98-0.3-7.08-0.89-9.32c-0.59-2.23-1.33-3.81-2.22-4.74c-0.88-0.92-1.79-1.38-2.74-1.38
			c-1.35,0-2.58,0.98-3.69,2.95c-1.11,1.97-1.66,5.27-1.66,9.9c0,4.39,0.51,7.49,1.54,9.32C370.14,66.3,371.37,67.21,372.81,67.21z"
			/>
	</g>
</g>
</svg>
